<svg width="156" height="156" viewBox="0 0 156 156" fill="none" xmlns="http://www.w3.org/2000/svg">
<rect x="13.5723" y="13.5723" width="128.087" height="128.087" rx="12.7239" fill="#D9D9D9"/>
<rect x="148.445" y="74.6467" width="46.6542" height="6.78607" rx="3.39303" transform="rotate(-90 148.445 74.6467)" fill="#D9D9D9"/>
<rect x="148.445" y="126.39" width="46.6542" height="6.78607" rx="3.39303" transform="rotate(-90 148.445 126.39)" fill="#D9D9D9"/>
<rect y="74.6467" width="46.6542" height="6.78607" rx="3.39303" transform="rotate(-90 0 74.6467)" fill="#D9D9D9"/>
<rect y="126.39" width="46.6542" height="6.78607" rx="3.39303" transform="rotate(-90 0 126.39)" fill="#D9D9D9"/>
<rect x="74.6469" y="6.78613" width="46.6542" height="6.78607" rx="3.39303" transform="rotate(-180 74.6469 6.78613)" fill="#D9D9D9"/>
<rect x="126.391" y="6.78613" width="46.6542" height="6.78607" rx="3.39303" transform="rotate(-180 126.391 6.78613)" fill="#D9D9D9"/>
<rect x="74.6469" y="155.231" width="46.6542" height="6.78607" rx="3.39303" transform="rotate(-180 74.6469 155.231)" fill="#D9D9D9"/>
<rect x="126.391" y="155.231" width="46.6542" height="6.78607" rx="3.39303" transform="rotate(-180 126.391 155.231)" fill="#D9D9D9"/>
</svg>
